<?xml version="1.0" standalone="no"?>
<!DOCTYPE svg PUBLIC "-//W3C//DTD SVG 20010904//EN"
 "http://www.w3.org/TR/2001/REC-SVG-20010904/DTD/svg10.dtd">
<svg version="1.0" xmlns="http://www.w3.org/2000/svg"
 width="902.000000pt" height="902.000000pt" viewBox="0 0 902.000000 902.000000"
 preserveAspectRatio="xMidYMid meet">
<metadata>
Created by potrace 1.14, written by Peter Selinger 2001-2017
</metadata>
<g transform="translate(0.000000,902.000000) scale(0.100000,-0.100000)"
fill="#000000" stroke="none">
<path d="M4190 8756 c0 -4 -9 -6 -20 -3 -11 3 -20 1 -20 -5 0 -6 -6 -8 -14 -5
-8 3 -17 3 -20 0 -8 -8 -56 -10 -56 -3 0 8 -55 4 -69 -4 -5 -4 -13 -1 -16 4
-5 8 -12 7 -23 -2 -10 -8 -27 -13 -39 -12 -13 0 -23 -2 -23 -6 0 -4 -11 -5
-24 -3 -14 3 -39 -2 -55 -10 -19 -9 -31 -11 -31 -5 0 7 -4 7 -13 0 -8 -7 -18
-7 -27 -2 -8 5 -19 6 -25 2 -5 -3 -19 -8 -30 -9 -10 -2 -23 -9 -27 -16 -6 -9
-8 -9 -8 0 0 8 -9 9 -31 3 -18 -5 -36 -7 -40 -4 -5 3 -6 -3 -2 -13 6 -16 5
-16 -10 -4 -12 9 -17 10 -17 2 0 -8 -5 -9 -19 -2 -14 8 -23 5 -40 -10 -11 -11
-21 -15 -21 -8 0 8 -4 9 -13 0 -8 -6 -17 -8 -20 -5 -4 4 -17 0 -30 -9 -19 -12
-27 -13 -37 -4 -10 9 -11 9 -5 -2 6 -11 4 -13 -8 -8 -10 4 -17 1 -17 -5 0 -6
-3 -8 -7 -5 -3 4 -12 2 -19 -3 -6 -6 -16 -10 -20 -9 -23 4 -45 -2 -39 -10 3
-6 -4 -8 -15 -6 -11 2 -20 -1 -20 -7 0 -6 -7 -5 -17 3 -15 12 -16 12 -11 -2 4
-10 1 -16 -5 -16 -36 1 -57 -4 -52 -12 3 -6 -4 -8 -15 -6 -12 2 -23 -2 -27
-10 -3 -8 -9 -15 -15 -15 -5 0 -7 4 -4 9 4 5 -2 8 -11 7 -9 -2 -19 -8 -21 -14
-2 -6 -10 -8 -18 -5 -8 3 -14 0 -14 -7 0 -7 -6 -10 -14 -7 -8 3 -17 -1 -20
-10 -4 -10 -15 -14 -36 -11 -17 3 -28 0 -27 -6 1 -6 -5 -11 -13 -11 -8 0 -20
-7 -27 -15 -6 -8 -15 -12 -19 -8 -4 4 -13 3 -21 -3 -7 -6 -13 -8 -13 -3 0 5
-4 3 -9 -4 -5 -8 -20 -15 -35 -15 -17 -1 -24 -7 -21 -15 3 -7 1 -11 -4 -7 -5
3 -15 -1 -23 -8 -7 -7 -25 -12 -40 -12 -18 1 -24 -3 -18 -10 6 -7 2 -11 -12
-12 -12 -1 -24 -7 -28 -13 -4 -6 -13 -10 -21 -8 -8 2 -13 -3 -11 -10 1 -8 -2
-11 -9 -6 -7 4 -18 -1 -26 -11 -7 -11 -13 -15 -13 -9 0 5 -5 2 -10 -6 -6 -10
-10 -11 -10 -2 0 6 -5 12 -11 12 -5 0 -8 -4 -5 -9 5 -8 -5 -16 -29 -20 -5 -2
-14 -9 -19 -18 -7 -13 -10 -13 -17 -2 -7 11 -9 10 -9 -4 0 -10 -5 -15 -11 -12
-5 4 -19 -1 -29 -10 -11 -10 -24 -14 -32 -9 -9 6 -9 3 1 -10 12 -15 12 -17 0
-14 -8 2 -13 -2 -12 -8 1 -7 -6 -10 -17 -7 -11 3 -20 0 -20 -6 0 -6 -9 -11
-19 -11 -11 0 -23 -5 -27 -12 -4 -7 -3 -8 4 -4 7 4 12 5 12 2 0 -3 -10 -10
-21 -17 -17 -9 -20 -8 -14 3 3 7 -3 2 -15 -12 -13 -14 -29 -24 -37 -22 -10 2
-12 -1 -7 -9 4 -7 3 -10 -4 -5 -6 3 -17 0 -25 -8 -8 -8 -17 -12 -21 -9 -6 6
-10 -13 -7 -31 1 -5 -4 -4 -12 2 -11 9 -18 7 -35 -12 -11 -13 -17 -28 -14 -32
4 -5 0 -3 -10 4 -19 15 -34 0 -22 -20 5 -9 2 -9 -9 1 -17 13 -23 6 -18 -22 0
-4 -2 -6 -6 -6 -17 3 -73 -26 -73 -38 0 -7 -7 -13 -16 -13 -9 0 -12 -5 -8 -12
5 -7 2 -9 -9 -5 -12 4 -14 2 -10 -11 6 -15 5 -16 -12 -2 -17 14 -18 13 -12 -2
6 -16 -3 -23 -25 -19 -8 1 -12 -15 -9 -33 1 -5 -6 -3 -15 5 -10 8 -15 9 -11 3
3 -6 -5 -16 -19 -23 -23 -10 -24 -14 -13 -28 11 -13 11 -15 1 -9 -7 4 -20 2
-29 -6 -14 -11 -16 -11 -8 1 5 10 4 12 -3 7 -7 -4 -12 -12 -12 -18 0 -12 -50
-61 -50 -50 -1 4 -8 -5 -16 -20 -8 -16 -22 -28 -30 -28 -9 0 -12 -5 -8 -12 5
-8 2 -9 -12 -4 -10 4 -15 4 -12 0 10 -9 -15 -33 -27 -26 -5 3 -3 -3 5 -13 10
-12 10 -16 2 -11 -8 5 -20 -2 -33 -18 -11 -15 -25 -24 -30 -21 -5 4 -9 0 -9
-8 0 -8 -8 -21 -17 -28 -14 -12 -16 -12 -9 1 4 8 1 6 -8 -4 -8 -10 -13 -23
-10 -28 3 -5 2 -8 -3 -7 -18 3 -36 -1 -30 -8 4 -3 -4 -16 -16 -27 -13 -12 -26
-30 -30 -39 -4 -10 -11 -15 -17 -12 -5 3 -10 1 -10 -5 0 -17 -26 -40 -35 -32
-5 4 -5 -1 -2 -10 4 -12 1 -18 -9 -18 -8 0 -13 -4 -9 -9 3 -5 -4 -12 -15 -16
-11 -3 -19 -11 -17 -17 1 -6 -9 -17 -23 -25 -14 -7 -19 -13 -13 -13 9 0 7 -6
-4 -19 -9 -11 -20 -18 -24 -15 -4 2 -10 -5 -14 -16 -4 -11 -10 -18 -15 -15 -5
3 -7 -3 -5 -15 2 -11 -1 -19 -8 -17 -7 1 -11 -6 -11 -15 1 -10 -2 -16 -6 -13
-12 7 -42 -44 -34 -57 4 -7 3 -8 -4 -4 -7 4 -22 -3 -34 -15 -13 -12 -17 -19
-11 -15 9 5 11 2 7 -9 -4 -9 -12 -14 -19 -12 -6 3 -12 -1 -13 -9 -1 -8 -3 -21
-4 -29 -1 -11 -5 -12 -14 -4 -9 8 -12 4 -10 -15 2 -17 -1 -23 -11 -19 -9 4
-11 0 -6 -13 4 -11 3 -15 -5 -10 -6 3 -13 -3 -17 -14 -3 -11 -10 -20 -15 -20
-5 0 -10 -10 -12 -22 -2 -13 -9 -22 -15 -21 -8 2 -10 -4 -6 -14 5 -12 3 -14
-8 -8 -11 7 -11 5 1 -10 8 -10 10 -16 5 -13 -6 4 -17 3 -25 -3 -10 -6 -11 -9
-2 -9 8 0 6 -6 -5 -18 -10 -11 -21 -17 -25 -15 -3 1 -4 -7 0 -19 4 -15 2 -19
-8 -13 -8 5 -11 3 -8 -6 3 -8 -7 -25 -21 -38 -22 -19 -23 -22 -6 -17 19 6 19
5 3 -8 -10 -7 -18 -18 -18 -25 0 -6 -4 -11 -10 -11 -5 0 -10 -9 -10 -21 0 -14
-5 -19 -13 -16 -10 4 -13 -1 -10 -17 3 -13 -5 -32 -21 -49 -14 -15 -22 -27
-19 -27 3 0 -1 -8 -8 -17 -12 -14 -12 -16 1 -9 8 4 4 -2 -9 -13 -13 -12 -18
-21 -11 -21 7 0 3 -9 -10 -20 -13 -11 -18 -20 -11 -20 16 0 -4 -39 -33 -63
-11 -10 -15 -16 -8 -12 15 8 16 -11 1 -20 -6 -4 -8 -13 -5 -21 3 -8 2 -13 -2
-13 -19 3 -25 -2 -12 -11 13 -8 12 -10 -2 -10 -10 0 -17 -3 -16 -7 1 -5 -5
-21 -12 -38 -7 -16 -12 -38 -12 -47 0 -10 -4 -21 -10 -24 -7 -5 -8 -2 -3 6 5
8 4 11 -3 7 -5 -4 -9 -19 -7 -33 2 -19 -1 -24 -13 -19 -12 4 -13 3 -2 -10 10
-12 9 -16 -5 -21 -13 -5 -14 -9 -3 -15 10 -7 10 -9 1 -9 -7 0 -13 -5 -13 -12
0 -6 -7 -19 -16 -29 -13 -14 -13 -22 -4 -39 10 -18 9 -21 -1 -15 -9 6 -11 2
-7 -13 4 -13 2 -20 -5 -19 -6 1 -12 -11 -12 -28 -1 -16 -6 -29 -12 -28 -6 1
-10 -11 -9 -27 1 -17 -2 -30 -7 -30 -4 0 -5 -5 -1 -12 5 -8 1 -9 -12 -5 -17 6
-17 6 -3 -5 14 -12 14 -15 -3 -32 -14 -16 -15 -22 -5 -35 9 -12 9 -13 0 -7 -9
5 -12 -1 -9 -23 2 -18 -1 -29 -8 -28 -6 1 -10 -6 -10 -15 1 -10 -2 -18 -7 -18
-5 0 -6 -7 -3 -15 4 -8 0 -23 -7 -32 -8 -9 -9 -14 -2 -10 7 5 9 0 6 -13 -3
-11 -9 -20 -13 -20 -4 0 -6 -13 -4 -30 2 -16 -1 -30 -6 -30 -6 0 -10 -19 -10
-42 0 -32 -3 -39 -10 -28 -6 9 -10 10 -10 3 0 -6 5 -15 11 -19 8 -5 8 -9 -1
-14 -6 -4 -13 -30 -14 -58 -1 -28 -5 -54 -10 -59 -5 -5 -6 -2 -1 6 5 10 4 12
-3 7 -8 -5 -9 -13 -2 -25 5 -10 6 -21 3 -25 -4 -4 -8 -26 -9 -49 -2 -64 -3
-69 -14 -62 -13 8 -8 -18 5 -27 6 -5 5 -8 -3 -8 -9 0 -11 -7 -7 -19 3 -11 1
-22 -5 -26 -8 -5 -8 -11 1 -21 9 -11 8 -18 -2 -31 -12 -15 -12 -16 1 -8 13 7
13 6 2 -7 -10 -13 -10 -17 0 -21 9 -4 8 -6 -3 -6 -14 -1 -16 -12 -14 -66 1
-42 -2 -65 -9 -65 -7 0 -7 -3 -1 -8 14 -10 14 -195 1 -204 -7 -5 -7 -8 -1 -8
6 0 10 -45 10 -114 1 -70 -3 -112 -9 -109 -5 4 -6 1 0 -8 5 -8 9 -54 9 -104 0
-49 5 -97 10 -105 14 -22 15 -131 1 -123 -6 3 -6 0 1 -8 16 -17 17 -43 1 -33
-7 4 -8 3 -4 -5 4 -6 11 -9 16 -6 4 3 11 -2 14 -11 9 -23 7 -31 -4 -14 -7 12
-9 10 -7 -7 0 -12 5 -19 9 -17 4 3 6 -5 4 -18 -2 -13 1 -31 6 -42 7 -13 7 -16
-1 -12 -6 4 -11 2 -11 -3 0 -6 8 -11 18 -12 14 0 14 -2 -3 -9 -19 -8 -19 -9
-1 -9 11 -1 17 -3 14 -7 -3 -3 -2 -21 2 -40 5 -23 4 -34 -4 -34 -6 0 -4 -5 4
-10 18 -11 20 -30 6 -49 -9 -12 -8 -13 3 -6 11 6 13 3 9 -13 -4 -12 -2 -22 4
-22 5 0 6 -4 3 -10 -3 -5 -1 -10 4 -10 6 0 11 -10 11 -22 -1 -29 5 -59 14 -79
4 -9 6 -20 5 -25 -5 -26 2 -45 14 -38 7 5 6 0 -3 -11 -9 -11 -10 -16 -2 -11 8
5 12 1 12 -11 0 -11 6 -25 13 -32 10 -11 10 -13 0 -7 -19 11 -16 -5 4 -21 10
-8 12 -11 4 -7 -11 6 -13 3 -6 -12 4 -10 8 -28 10 -38 1 -11 7 -22 13 -24 7
-2 10 -8 6 -13 -3 -5 0 -9 7 -9 10 0 10 -3 1 -12 -14 -14 -16 -32 -3 -24 5 3
15 -2 22 -11 10 -12 10 -14 2 -9 -7 4 -13 2 -13 -3 0 -6 4 -11 9 -11 5 0 12
-7 15 -16 6 -15 4 -15 -11 -3 -10 7 -8 2 5 -12 12 -14 22 -37 22 -51 0 -15 6
-29 13 -31 9 -4 9 -6 -1 -6 -10 -1 -10 -5 2 -17 9 -8 14 -20 11 -25 -4 -5 0
-9 7 -9 9 0 9 -3 -2 -10 -13 -8 -13 -10 2 -10 11 0 15 -5 12 -15 -4 -9 0 -15
7 -15 12 0 12 -2 1 -9 -11 -7 -10 -9 3 -15 12 -4 14 -12 9 -28 -3 -13 -3 -20
1 -16 9 9 35 -14 28 -25 -3 -4 2 -18 10 -31 12 -18 13 -26 4 -35 -9 -9 -8 -11
6 -5 13 5 16 2 11 -10 -4 -9 -1 -16 6 -16 7 0 10 -7 6 -16 -3 -8 -2 -12 4 -9
6 3 10 -1 10 -10 0 -8 7 -18 15 -21 13 -5 13 -9 3 -22 -11 -13 -11 -14 1 -7
11 6 13 4 8 -8 -4 -10 -2 -16 6 -14 7 1 11 -4 9 -12 -1 -7 5 -20 15 -28 10 -8
13 -12 7 -9 -6 3 -11 -1 -11 -9 0 -7 8 -12 17 -10 9 2 17 -3 17 -10 0 -8 -4
-12 -9 -9 -4 3 -8 0 -8 -5 0 -6 5 -11 11 -11 6 0 8 -7 5 -16 -6 -15 -4 -15 11
-3 11 9 14 10 9 2 -4 -7 -3 -13 3 -13 5 0 8 -11 7 -25 -2 -13 0 -23 3 -20 4 2
13 -10 20 -26 7 -16 17 -26 23 -23 6 4 8 2 5 -4 -9 -14 3 -43 14 -36 5 3 9 2
8 -3 -4 -22 2 -34 13 -27 7 4 10 4 6 -1 -4 -4 -2 -15 5 -23 10 -13 9 -15 -3
-8 -9 4 -8 1 2 -7 10 -8 18 -19 18 -26 0 -6 5 -11 10 -11 6 0 10 -7 10 -16 0
-9 5 -12 13 -8 7 5 7 1 -3 -12 -8 -10 -11 -16 -6 -12 11 9 36 -16 36 -36 0 -9
5 -16 10 -16 6 0 10 -7 10 -16 0 -8 5 -12 10 -9 9 5 15 -15 11 -37 0 -4 7 -4
16 -1 11 4 14 3 9 -5 -4 -6 2 -20 14 -32 11 -11 21 -25 22 -32 2 -6 14 -23 28
-36 15 -15 17 -19 5 -11 -18 13 -19 13 -6 -3 7 -10 23 -18 35 -18 11 0 17 -4
11 -8 -15 -10 -18 -35 -4 -26 9 5 10 2 5 -11 -5 -15 -4 -16 9 -5 13 11 16 11
13 -1 -2 -8 3 -13 11 -11 12 3 12 1 0 -14 -9 -12 -9 -15 -1 -10 7 4 12 2 12
-4 0 -6 4 -8 10 -5 6 4 7 -1 3 -11 -5 -13 -2 -16 9 -12 10 4 15 1 14 -10 0 -9
5 -16 12 -14 9 2 11 -4 7 -18 -5 -15 -3 -18 8 -14 9 3 16 -3 20 -15 3 -12 12
-21 21 -21 9 0 16 -5 16 -11 0 -5 -6 -7 -12 -3 -8 4 -10 3 -5 -2 5 -5 12 -9
16 -9 11 0 36 -27 44 -47 3 -10 14 -18 22 -18 9 0 13 -5 10 -10 -3 -6 -1 -10
5 -10 6 0 8 -5 4 -12 -5 -7 -2 -9 9 -5 12 4 14 2 10 -11 -6 -14 -4 -15 9 -4
13 10 15 9 10 -14 -3 -19 -1 -25 7 -20 6 4 11 2 11 -3 0 -6 6 -11 14 -11 8 0
23 -14 33 -30 9 -17 26 -33 36 -36 16 -5 17 -8 6 -16 -10 -7 -8 -8 8 -5 24 5
29 -2 15 -19 -4 -5 -6 -8 -4 -8 2 1 15 -9 29 -22 14 -13 32 -24 39 -24 8 0 11
-6 7 -17 -4 -11 -3 -14 5 -9 7 4 12 2 12 -4 0 -6 5 -8 12 -4 8 5 9 2 5 -10 -4
-10 -3 -15 3 -11 6 3 13 -1 16 -9 3 -9 11 -16 18 -16 17 0 43 -34 38 -50 -2
-8 3 -6 12 5 14 18 15 18 16 3 0 -10 5 -18 11 -18 5 0 7 -5 4 -10 -4 -6 -3
-10 2 -9 4 1 15 1 23 0 13 -1 13 -2 0 -11 -13 -8 -12 -10 3 -10 11 0 32 -14
48 -31 16 -17 33 -28 39 -24 5 3 10 -1 10 -9 0 -9 7 -16 16 -16 9 0 12 -5 8
-12 -5 -8 0 -9 14 -6 17 5 22 2 22 -14 0 -10 5 -16 10 -13 6 3 10 1 10 -4 0
-6 9 -11 21 -11 11 0 17 -4 14 -10 -3 -5 1 -10 9 -10 9 0 16 -5 16 -11 0 -5 5
-7 12 -3 8 5 9 2 5 -9 -5 -13 -1 -17 19 -17 14 0 22 -4 19 -10 -3 -5 1 -10 10
-10 9 0 14 -4 11 -9 -3 -5 2 -8 12 -7 9 0 16 -4 15 -11 -2 -6 13 -17 32 -24
19 -7 31 -17 28 -23 -4 -6 1 -5 11 3 9 8 16 10 15 5 -3 -20 1 -35 10 -30 5 4
24 -6 42 -21 18 -16 29 -21 24 -13 -8 13 -6 13 8 1 9 -7 14 -18 11 -23 -4 -6
2 -7 16 -3 19 6 22 4 16 -10 -5 -14 -4 -15 7 -7 10 8 17 5 31 -13 11 -15 25
-22 38 -20 11 3 18 2 15 -2 -9 -9 36 -41 50 -36 7 3 13 0 13 -6 0 -6 9 -11 21
-11 11 0 17 -4 14 -10 -3 -5 3 -10 15 -10 14 0 19 -4 14 -12 -4 -7 -4 -10 1
-6 4 4 15 2 23 -5 13 -10 14 -9 8 1 -7 11 -4 12 13 3 11 -7 21 -14 21 -17 0
-3 -5 -2 -12 2 -7 4 -8 3 -4 -5 6 -9 11 -9 22 0 11 9 14 8 14 -5 0 -9 3 -15 8
-15 4 1 14 1 22 0 13 -1 13 -2 0 -12 -12 -8 -10 -9 8 -4 12 4 22 2 22 -4 0 -5
9 -8 20 -6 11 2 18 0 15 -6 -4 -5 1 -9 9 -9 9 0 16 -6 16 -12 0 -10 2 -10 9 0
7 11 9 11 14 -2 4 -10 13 -13 24 -9 16 6 17 5 3 -12 -14 -17 -14 -18 8 -6 12
6 22 7 22 2 0 -5 9 -7 20 -4 12 3 22 -1 26 -10 3 -9 12 -13 20 -10 8 3 14 -1
14 -10 0 -10 7 -13 20 -10 11 3 20 0 20 -6 0 -6 12 -11 26 -11 14 0 23 -4 19
-9 -3 -5 -1 -12 5 -16 5 -3 10 -1 10 6 0 7 7 4 16 -7 8 -10 13 -13 9 -7 -9 18
5 16 41 -6 23 -14 35 -16 43 -8 8 8 11 7 11 -5 0 -11 7 -16 20 -13 11 2 20 0
20 -6 0 -5 6 -8 13 -7 6 2 11 -3 9 -11 -2 -11 0 -12 10 -4 10 8 18 8 32 -2 10
-8 24 -11 32 -8 8 3 14 0 14 -6 0 -9 5 -9 20 -1 16 9 22 8 26 -5 3 -8 10 -12
15 -9 5 3 9 0 9 -7 0 -9 3 -9 14 0 12 10 17 8 26 -9 9 -16 15 -19 25 -10 9 8
15 8 20 0 4 -7 12 -7 25 0 13 7 19 6 24 -6 4 -9 13 -14 21 -10 8 3 15 0 15 -6
0 -7 4 -7 13 1 17 13 27 5 20 -17 -3 -10 -1 -13 4 -7 11 13 33 17 33 6 0 -5
16 -8 34 -6 46 4 78 -4 69 -19 -4 -6 1 -5 10 3 12 9 17 10 17 2 0 -9 5 -9 21
0 16 8 20 8 14 0 -4 -8 1 -10 17 -7 13 2 32 -2 43 -10 23 -17 39 -18 29 -2 -5
7 -3 8 6 3 20 -12 74 -14 87 -3 9 7 15 5 19 -6 4 -9 14 -16 23 -15 9 1 18 0
21 -1 14 -8 918 -6 933 2 10 5 17 5 17 0 0 -9 72 -7 97 2 7 3 13 1 13 -5 0 -6
5 -7 10 -4 6 4 8 10 6 14 -3 4 1 8 9 8 8 0 12 -5 8 -10 -3 -5 4 -4 17 3 12 6
29 9 37 6 9 -4 22 -1 30 5 7 7 16 9 19 6 4 -3 13 1 21 9 12 12 18 12 30 2 12
-9 16 -9 24 3 7 12 9 12 9 -1 0 -11 2 -12 8 -3 4 7 25 14 47 17 22 2 41 5 43
7 1 1 7 3 12 4 6 1 11 3 13 5 9 7 36 6 31 -2 -4 -6 6 -2 22 8 17 12 25 14 20
6 -7 -11 -4 -12 13 -3 11 7 21 8 21 4 0 -4 7 2 16 13 8 10 13 13 9 7 -8 -16
11 -17 21 -2 4 8 9 7 15 -2 7 -11 9 -11 9 2 0 19 37 32 44 15 3 -7 5 -7 5 2 1
7 6 10 11 7 6 -4 21 0 34 8 13 9 28 12 36 7 18 -11 40 -1 41 19 0 10 2 11 6 4
3 -9 10 -10 24 -3 14 8 19 7 19 -1 0 -6 9 -1 21 12 11 13 17 17 13 9 -6 -12
-5 -13 7 -3 11 9 19 9 26 2 8 -8 13 -7 18 2 5 8 4 10 -3 5 -7 -4 -12 -2 -12 3
0 10 29 16 53 12 4 0 7 4 7 10 0 5 5 7 12 3 8 -5 9 -2 5 10 -5 12 -3 15 5 9 7
-4 21 -8 30 -8 15 -1 15 1 5 13 -10 13 -9 14 12 3 15 -8 21 -9 17 -2 -4 6 0
11 11 11 11 0 24 5 31 12 7 7 12 8 12 3 0 -5 7 0 16 11 8 10 13 13 9 7 -3 -7
-1 -13 4 -13 6 0 11 5 11 10 0 6 9 10 20 10 11 0 20 5 20 11 0 6 6 9 13 6 6
-2 21 3 31 12 16 13 18 13 11 1 -4 -8 3 -5 17 8 13 12 28 19 31 15 4 -3 7 0 7
8 0 11 2 11 10 -1 7 -11 10 -11 10 -2 0 8 5 10 13 6 9 -6 9 -4 -1 8 -11 14
-11 16 0 14 7 -1 20 -6 28 -10 8 -5 12 -6 8 -2 -10 11 14 34 29 29 7 -3 13 0
13 7 0 6 5 8 10 5 6 -3 10 -1 10 5 0 7 7 9 16 6 8 -3 12 -2 9 4 -3 6 0 10 8
10 24 0 67 26 60 36 -4 5 -2 4 6 -3 11 -9 18 -7 35 11 11 13 29 22 38 20 10
-1 16 3 15 9 -1 6 3 12 8 12 23 3 51 19 70 40 11 11 16 15 11 8 -15 -23 2 -14
29 15 21 22 25 23 19 7 -3 -11 3 -6 14 12 15 22 27 31 41 28 11 -2 22 3 25 11
3 9 10 13 15 10 5 -3 12 1 15 10 4 9 13 14 22 10 8 -3 12 -2 9 4 -3 6 1 10 10
10 9 0 14 4 10 9 -3 5 4 12 15 16 11 4 17 11 14 17 -4 6 2 6 15 -1 17 -9 20
-9 15 3 -4 10 3 17 20 22 14 3 24 11 23 18 -1 6 4 10 11 8 6 -1 12 2 12 7 0 6
9 8 21 6 18 -4 19 -2 7 12 -9 12 -9 15 0 9 7 -4 12 -2 12 4 0 6 5 8 12 4 8 -5
9 -2 5 10 -6 14 -3 15 13 6 16 -8 20 -8 18 2 -2 7 5 12 14 12 10 -1 14 4 11
11 -2 8 5 16 18 20 17 6 19 9 8 17 -10 7 -8 8 9 5 12 -3 20 -2 17 3 -5 9 24
25 39 21 5 -1 4 5 -3 13 -10 12 -9 14 6 12 10 -2 30 10 44 25 15 16 29 25 33
22 4 -4 9 3 13 16 3 13 11 20 19 17 8 -3 13 -2 13 2 -3 19 2 33 10 28 5 -4 20
7 34 23 14 17 28 27 31 24 3 -4 6 1 6 10 0 11 8 17 23 18 12 0 17 3 10 6 -10
3 -10 7 0 18 7 7 15 11 19 9 4 -2 9 5 13 16 4 11 11 17 17 14 7 -5 9 -1 5 9
-4 11 -2 14 9 10 10 -4 17 2 21 16 3 11 9 18 14 15 5 -3 9 0 9 6 0 6 5 8 13 4
8 -5 7 -2 -2 9 -12 15 -12 17 4 10 14 -5 17 -3 12 10 -4 11 -2 14 8 11 15 -6
39 29 27 40 -3 4 1 4 10 1 9 -4 19 -1 24 6 5 8 3 10 -7 4 -8 -4 10 15 39 43
28 27 52 55 52 61 0 6 7 11 15 11 9 0 12 6 9 15 -4 10 0 15 11 15 12 0 15 5
11 17 -4 10 -4 15 -1 11 10 -9 66 53 58 65 -4 6 0 8 10 4 10 -4 18 1 22 14 4
10 12 19 18 19 8 0 8 3 -1 9 -10 6 -9 11 4 22 12 9 15 10 10 2 -4 -7 -5 -13
-1 -13 3 0 10 12 15 26 6 15 14 22 22 18 7 -4 8 -3 4 5 -5 7 1 20 13 30 11 10
18 21 14 25 -3 3 1 6 10 6 10 0 15 7 12 20 -2 11 1 19 8 17 7 -1 11 6 11 15
-1 10 1 16 5 15 3 -1 7 2 8 7 1 5 14 17 30 28 19 14 22 18 8 14 -17 -5 -18 -4
-5 6 8 7 22 22 30 32 13 18 13 19 0 12 -9 -4 -8 -1 3 7 9 8 17 19 17 25 0 5 7
13 16 16 9 4 14 13 10 21 -3 9 0 15 9 15 8 0 14 6 13 13 -2 6 3 11 10 9 8 -1
11 2 8 7 -9 14 29 73 40 63 4 -4 2 2 -6 12 -8 11 -10 17 -4 13 7 -4 14 2 17
14 4 13 10 18 18 13 8 -4 10 -3 5 4 -4 7 -4 18 1 24 8 13 9 18 12 38 0 6 8 10
17 10 8 0 13 4 10 9 -4 5 -2 11 4 13 5 1 11 14 12 28 2 14 8 28 13 32 6 4 10
13 10 20 1 7 6 12 12 11 5 -1 9 9 7 23 -1 15 2 22 9 17 7 -4 8 0 4 11 -4 10
-3 15 3 11 6 -3 10 1 10 10 0 10 5 13 13 9 7 -5 6 0 -3 11 -9 11 -10 16 -2 11
8 -5 12 0 12 16 0 13 9 30 19 37 11 8 17 20 14 27 -2 6 0 15 6 18 6 4 7 14 4
23 -4 10 -2 14 5 9 6 -3 13 -2 16 3 4 5 2 12 -4 16 -5 3 -10 12 -10 18 0 7 4
6 10 -3 5 -8 10 -12 11 -7 1 4 2 10 3 15 1 4 4 12 7 17 4 6 5 20 4 32 -1 12 5
25 12 28 10 3 12 12 8 26 -5 15 -4 19 4 15 6 -4 11 -2 11 3 0 22 1 27 17 50 8
13 10 20 4 17 -6 -4 -11 -3 -11 3 0 5 10 13 21 16 17 6 19 9 8 16 -12 7 -12 9
0 9 11 0 11 3 0 17 -10 11 -10 14 -1 9 8 -5 12 0 12 14 0 12 4 19 8 16 5 -3 8
10 7 28 0 24 3 32 12 29 9 -4 12 4 9 26 -2 17 1 31 6 31 6 0 7 7 4 16 -3 8 -2
12 4 9 6 -3 10 1 10 10 0 10 -5 14 -12 10 -7 -4 -6 -1 3 7 9 7 14 19 12 26 -3
6 1 12 7 12 7 0 10 13 9 33 -2 20 1 31 8 30 7 -2 10 4 7 12 -4 8 -11 12 -17 8
-6 -3 -7 -1 -3 6 4 6 12 8 18 5 6 -4 9 7 7 29 -2 19 3 42 10 51 7 9 10 16 5
16 -5 0 -2 5 6 10 8 5 10 10 3 10 -15 0 -4 40 11 40 7 0 7 3 1 8 -12 9 -16 44
-4 36 5 -3 9 2 9 12 0 9 8 23 18 30 14 12 15 13 1 8 -10 -3 -20 0 -25 7 -4 8
-3 10 4 5 7 -4 12 -1 12 8 0 9 4 16 9 16 6 0 6 12 1 30 -6 21 -5 28 2 24 7 -5
9 2 4 20 -4 18 -3 25 4 21 11 -7 12 -2 13 93 0 37 5 62 11 62 6 0 4 5 -4 10
-9 6 -10 10 -3 10 18 0 19 936 1 958 -10 12 -10 14 0 8 6 -4 12 -3 12 3 0 5
-6 11 -12 14 -10 3 -9 8 2 22 9 12 10 16 2 11 -10 -6 -12 3 -9 39 2 31 -1 52
-11 61 -11 11 -11 14 0 14 11 0 11 2 0 9 -8 4 -13 14 -12 22 1 8 2 34 1 59 -1
33 -4 41 -11 30 -5 -8 -10 -10 -10 -4 0 5 6 16 13 23 8 10 8 12 0 7 -7 -4 -12
0 -12 11 0 24 -5 45 -15 62 -7 10 -5 12 3 6 10 -6 11 -3 1 15 -7 12 -10 37 -8
56 3 23 1 30 -7 24 -7 -6 -11 -2 -12 13 -2 47 -8 77 -14 77 -4 0 -7 12 -7 28
1 45 -1 54 -14 46 -7 -5 -9 -2 -5 8 3 9 0 24 -8 34 -9 14 -10 24 -3 38 8 14 7
17 -2 11 -9 -6 -11 0 -8 24 3 21 1 30 -7 28 -10 -4 -14 7 -17 51 -1 6 -5 12
-10 12 -4 0 -8 11 -8 25 0 14 -6 25 -12 25 -9 0 -8 4 2 10 9 6 10 10 3 10 -7
0 -18 10 -24 23 -12 21 -11 21 7 7 18 -14 18 -14 2 6 -10 11 -18 28 -18 36 0
9 -6 19 -12 21 -10 4 -10 6 0 6 10 1 9 5 -3 17 -9 9 -14 23 -11 31 3 8 1 11
-4 8 -6 -3 -10 3 -10 14 0 12 -6 21 -12 21 -9 0 -8 4 2 10 13 8 13 10 -2 10
-11 0 -15 6 -11 19 3 11 -2 21 -11 24 -10 4 -13 13 -9 23 4 10 2 15 -3 11 -6
-3 -11 2 -12 11 -4 36 -8 51 -20 64 -6 8 -8 19 -4 23 4 5 1 5 -5 1 -9 -5 -13
0 -13 13 0 12 -5 21 -11 21 -5 0 -7 4 -4 10 8 13 -19 52 -30 42 -4 -4 -2 3 4
15 10 19 9 22 -4 17 -12 -5 -15 -1 -11 19 3 20 1 25 -11 20 -10 -4 -14 -2 -9
5 3 6 2 13 -4 17 -6 4 -8 11 -5 16 4 5 -2 9 -12 9 -15 0 -16 2 -3 10 11 7 11
10 2 10 -7 0 -10 5 -7 10 3 6 1 10 -4 10 -6 0 -10 6 -8 13 1 6 -3 11 -9 10 -7
-1 -10 6 -7 17 4 14 0 20 -10 20 -10 0 -15 7 -12 20 2 13 -2 20 -11 20 -8 0
-13 3 -13 8 3 19 -2 33 -11 27 -9 -5 -15 15 -11 38 0 4 -6 7 -14 7 -9 0 -18
12 -21 30 -4 16 -17 41 -30 55 -13 14 -19 25 -14 25 6 0 2 9 -7 19 -9 11 -21
17 -27 14 -6 -4 -5 1 3 10 12 15 12 17 -4 10 -14 -5 -17 -3 -13 8 6 16 -16 41
-28 31 -4 -4 -4 1 -1 11 4 9 2 17 -3 17 -5 0 -7 7 -3 15 3 9 2 15 -3 14 -18
-3 -34 1 -33 9 4 21 -3 32 -18 32 -15 0 -16 2 -3 10 13 9 13 10 0 11 -8 1 -18
1 -22 0 -4 0 -5 8 -3 19 3 13 0 18 -7 14 -7 -5 -9 -1 -5 9 3 9 3 16 -1 16 -22
-4 -30 3 -27 21 3 15 -2 20 -18 20 -18 0 -19 2 -7 10 13 9 13 10 0 11 -8 1
-19 1 -23 0 -5 -1 -5 3 -2 10 9 13 -29 51 -41 41 -5 -4 -2 2 6 12 10 13 10 17
3 12 -8 -4 -13 -2 -13 4 0 7 -7 9 -16 6 -8 -3 -12 -2 -9 4 3 5 -5 20 -17 33
-13 13 -22 30 -20 37 3 7 0 10 -7 6 -6 -4 -11 -2 -11 4 0 6 -4 8 -10 5 -5 -3
-10 3 -10 15 0 12 -4 18 -10 15 -5 -3 -10 1 -10 10 0 9 -4 13 -10 10 -5 -3
-10 0 -10 8 0 8 -11 22 -24 33 -14 10 -23 21 -20 26 3 4 -2 8 -11 8 -16 0 -57
58 -50 70 2 4 -3 7 -11 7 -10 0 -11 -4 -4 -11 5 -5 10 -15 10 -20 0 -6 -9 2
-19 18 -11 17 -17 34 -14 39 3 6 1 7 -5 3 -7 -4 -12 -2 -12 3 0 6 -6 11 -14
11 -8 0 -18 9 -21 20 -4 11 -10 18 -14 15 -5 -2 -17 2 -27 10 -13 10 -14 14
-4 12 8 -2 12 -2 7 0 -4 3 -5 9 -2 14 4 5 0 6 -8 3 -8 -3 -18 0 -22 5 -3 6
-11 9 -16 6 -5 -3 -6 2 -2 11 4 12 3 15 -5 10 -7 -4 -12 -1 -12 8 0 9 -6 13
-14 10 -8 -3 -17 0 -22 7 -4 8 -3 10 4 5 8 -5 10 -2 6 8 -3 9 -10 14 -14 11
-5 -3 -15 2 -23 10 -9 8 -20 15 -25 15 -6 0 -21 13 -35 29 -14 17 -28 27 -32
23 -4 -4 -6 -2 -5 3 1 6 2 17 1 25 -1 13 -2 13 -11 0 -8 -13 -10 -12 -10 3 0
11 -8 17 -22 17 -19 0 -20 2 -8 10 13 8 12 10 -4 10 -10 0 -26 8 -35 18 -16
19 -50 36 -63 34 -4 -1 -5 5 -2 13 4 11 -1 15 -16 15 -14 0 -20 5 -17 13 3 8
-1 14 -9 15 -8 1 -21 3 -29 4 -8 1 -12 4 -10 8 2 3 0 12 -6 20 -7 13 -9 13 -9
0 0 -13 -1 -13 -10 0 -5 8 -17 15 -27 15 -10 0 -23 11 -30 25 -7 14 -13 21
-13 16 0 -6 -7 -1 -16 10 -8 10 -13 13 -9 7 11 -22 -9 -14 -23 8 -8 13 -19 18
-29 15 -13 -5 -13 -4 -4 7 9 12 6 14 -15 11 -18 -2 -28 3 -31 16 -3 12 -11 16
-26 13 -18 -4 -19 -3 -7 6 13 9 13 11 -2 11 -10 0 -18 4 -18 8 0 4 -10 8 -22
9 -11 1 -25 7 -29 14 -4 7 -14 9 -22 6 -12 -4 -14 -2 -10 10 5 13 2 15 -11 10
-9 -4 -15 -3 -12 1 3 4 -4 14 -16 21 -11 7 -17 8 -13 2 3 -6 1 -11 -4 -11 -6
0 -11 7 -11 16 0 14 -3 14 -15 4 -13 -11 -14 -10 -9 4 5 12 -1 18 -25 22 -18
4 -38 16 -46 28 -8 11 -15 15 -15 8 0 -10 -4 -9 -16 2 -8 9 -20 14 -25 11 -5
-4 -9 -1 -9 4 0 6 -9 11 -19 11 -11 0 -21 4 -23 10 -1 5 -15 11 -30 12 -15 1
-24 6 -22 10 3 4 -4 8 -16 8 -12 0 -19 4 -16 9 3 5 -3 11 -14 14 -13 3 -18 1
-13 -6 4 -8 2 -8 -9 0 -8 7 -19 9 -23 5 -5 -4 -5 -2 -2 4 9 15 -13 32 -35 29
-10 -2 -18 1 -18 6 0 4 -7 6 -15 3 -9 -4 -24 4 -36 17 -11 13 -17 18 -13 10 4
-9 2 -12 -7 -9 -8 3 -13 10 -12 15 1 5 -12 8 -28 7 -16 -1 -29 2 -29 7 0 5 -7
9 -16 9 -9 0 -12 5 -8 13 6 9 4 9 -7 1 -16 -13 -64 7 -51 22 4 4 -2 2 -12 -6
-13 -10 -17 -10 -12 -2 5 8 -2 12 -24 12 -18 0 -29 4 -25 10 5 8 -15 13 -41 9
-4 0 -11 5 -15 13 -7 10 -9 10 -9 -2 -1 -12 -3 -12 -11 2 -5 9 -16 15 -23 12
-8 -3 -17 -1 -21 5 -3 6 -17 11 -30 11 -13 0 -27 5 -30 10 -5 8 -12 7 -23 -2
-9 -8 -13 -8 -9 -2 8 14 -17 26 -38 18 -8 -4 -15 -2 -15 3 0 5 -8 10 -17 11
-38 3 -59 8 -72 17 -10 6 -12 4 -7 -6 4 -8 0 -5 -8 5 -16 20 -16 20 -16 0 -1
-17 -2 -17 -10 -2 -6 10 -19 15 -30 13 -11 -2 -20 0 -20 4 0 4 -7 8 -15 8 -8
0 -15 -5 -15 -11 0 -6 -4 -5 -9 2 -4 7 -17 15 -27 17 -10 2 -21 4 -24 5 -15 6
-36 4 -42 -5 -5 -6 -8 -5 -8 3 0 7 -4 11 -9 7 -5 -3 -16 2 -25 10 -8 8 -17 11
-20 6 -4 -5 -19 -6 -34 -2 -15 3 -41 6 -59 5 -19 -1 -32 2 -30 9 2 12 -21 17
-38 8 -9 -5 -48 -4 -105 2 -14 1 -31 -2 -39 -8 -12 -8 -13 -7 -6 4 6 11 4 13
-9 8 -10 -4 -15 -3 -11 3 4 6 -19 9 -60 7 -36 -1 -65 0 -65 3 0 3 -36 3 -80 0
-44 -3 -80 -3 -80 0 0 3 -92 5 -205 5 -113 0 -205 -4 -205 -9z m4225 -2514
c-3 -3 -11 0 -18 7 -9 10 -8 11 6 5 10 -3 15 -9 12 -12z m-7903 -304 c-7 -7
-12 -8 -12 -2 0 14 12 26 19 19 2 -3 -1 -11 -7 -17z m1663 -4988 c3 -6 -1 -7
-9 -4 -18 7 -21 14 -7 14 6 0 13 -4 16 -10z"/>
<path d="M7257 7779 c12 -12 24 -21 27 -18 2 2 -8 13 -22 23 l-27 19 22 -24z"/>
<path d="M7595 7470 c3 -5 8 -10 11 -10 2 0 4 5 4 10 0 6 -5 10 -11 10 -5 0
-7 -4 -4 -10z"/>
<path d="M1450 1525 c0 -8 4 -15 10 -15 5 0 7 7 4 15 -4 8 -8 15 -10 15 -2 0
-4 -7 -4 -15z"/>
<path d="M6765 870 c-3 -5 -1 -10 4 -10 6 0 11 5 11 10 0 6 -2 10 -4 10 -3 0
-8 -4 -11 -10z"/>
<path d="M2875 550 c3 -5 8 -10 11 -10 2 0 4 5 4 10 0 6 -5 10 -11 10 -5 0 -7
-4 -4 -10z"/>
</g>
</svg>
